<svg version="1.1" id="Layer_1" xmlns="http://www.w3.org/2000/svg" xmlns:xlink="http://www.w3.org/1999/xlink" x="0px" y="0px"
	 width="100%" viewBox="0 0 663 636" enable-background="new 0 0 663 636" xml:space="preserve">
<path fill="#CD0F2E" opacity="1.000000" stroke="none" 
	d="
M1.000000,243.000000 
	C1.000000,162.015472 1.000000,81.530960 1.000000,1.023218 
	C221.942017,1.023218 442.884033,1.023218 663.913025,1.023218 
	C663.913025,212.901230 663.913025,424.802521 663.913025,636.851929 
	C443.000061,636.851929 222.000046,636.851929 1.000000,636.851929 
	C1.000000,505.782501 1.000000,374.641266 1.000000,243.000000 
M105.805161,128.812683 
	C105.805161,128.812683 105.749199,128.692230 105.225342,128.881256 
	C105.066399,129.203690 104.907455,129.526138 104.871284,129.881531 
	C104.871284,129.881531 104.797272,129.778168 104.281754,129.988983 
	C103.999184,130.457092 103.716614,130.925217 103.429047,131.513107 
	C103.429047,131.513107 103.323959,131.570801 102.834862,131.933167 
	C101.858231,133.269821 100.881599,134.606476 99.990341,135.981384 
	C99.990341,135.981384 99.935204,135.905792 99.350365,136.233093 
	C96.401947,140.339722 93.453522,144.446335 90.451546,148.762756 
	C90.451546,148.762756 90.537262,148.564621 89.994499,148.907867 
	C89.219185,150.199509 88.443878,151.491150 87.836693,152.875504 
	C87.836693,152.875504 87.715485,152.726593 87.151627,153.045151 
	C86.405594,154.344162 85.659554,155.643173 85.000397,156.982819 
	C85.000397,156.982819 84.933243,156.914291 84.361214,157.272171 
	C83.702568,158.454285 83.043922,159.636398 82.082596,161.008209 
	C82.082596,161.008209 82.021599,161.360168 81.516350,161.736481 
	C78.542152,167.060150 75.567955,172.383804 72.808922,178.048965 
	C72.808922,178.048965 72.618370,177.693726 72.126816,178.023438 
	C71.927399,178.572067 71.727989,179.120712 71.645988,179.955734 
	C71.645988,179.955734 71.546387,179.670944 71.077461,180.012711 
	C70.885872,180.553696 70.694283,181.094681 70.924110,181.650375 
	C70.924110,181.650375 70.503693,181.663040 70.044662,182.011414 
	C69.871834,182.553894 69.699005,183.096390 69.935699,183.764709 
	C69.935699,183.764709 69.516968,183.674377 69.051453,184.030762 
	C68.881226,184.585526 68.710999,185.140305 68.808578,186.027130 
	C68.808578,186.027130 68.569763,185.673706 68.087074,185.990387 
	C67.889473,186.525177 67.691872,187.059982 67.817108,187.556122 
	C67.817108,187.556122 67.500999,187.631744 67.078293,187.968643 
	C67.009186,188.315903 66.940079,188.663177 66.711288,189.138275 
	C66.711288,189.138275 66.718506,189.342697 66.156067,189.772888 
	C65.757370,190.859619 65.358673,191.946350 64.750626,193.187668 
	C64.750626,193.187668 64.801292,193.442947 64.221962,193.899506 
	C62.329910,198.500122 60.437862,203.100723 58.692612,208.026031 
	C58.692612,208.026031 58.581745,207.687439 58.070648,208.134491 
	C57.680851,209.438583 57.291054,210.742691 56.750313,212.186462 
	C56.750313,212.186462 56.799820,212.386078 56.221325,212.880341 
	C55.468052,215.249283 54.714779,217.618210 54.006725,219.985611 
	C54.006725,219.985611 53.972435,219.955917 53.452095,220.461395 
	C50.802322,229.649307 48.152554,238.837204 45.195889,248.725388 
	C45.137165,249.485596 45.078438,250.245804 44.526783,251.507233 
	C44.156879,253.351089 43.786976,255.194931 43.158577,257.748718 
	C43.126236,258.501678 43.093895,259.254639 42.603436,260.604462 
	C42.185772,263.413818 41.768108,266.223145 41.151115,269.766144 
	C41.145176,270.520905 41.139240,271.275665 40.770092,272.539795 
	C39.972301,275.679230 41.766052,275.819550 44.737305,275.659973 
	C45.464642,275.640869 46.191982,275.621765 47.808201,275.856537 
	C50.958618,276.036835 54.108006,276.237854 57.259621,276.393860 
	C73.178391,277.181915 89.097740,277.958252 105.751266,278.963409 
	C106.513947,278.947052 107.276627,278.930695 108.756294,279.285217 
	C118.505714,279.742371 128.255127,280.199524 138.795013,280.868591 
	C139.880417,280.881439 140.965836,280.894257 142.769562,281.270325 
	C153.181030,281.749634 163.592514,282.228912 174.662842,282.951782 
	C175.124908,282.918976 175.586990,282.886200 176.766403,283.221222 
	C196.711868,284.392792 216.654587,285.613800 236.603745,286.718628 
	C250.062500,287.463989 263.530334,288.045502 277.656921,288.948273 
	C278.123138,288.919006 278.589386,288.889740 279.784180,289.195312 
	C288.187012,289.666595 296.589844,290.137909 304.779907,290.597290 
	C305.130646,289.610870 305.348724,289.296600 305.333832,288.993774 
	C305.154419,285.341827 304.940552,281.691589 304.876007,277.249786 
	C304.760315,276.462036 304.644623,275.674316 304.729248,274.062622 
	C304.063324,264.057922 303.397369,254.053207 302.877167,243.288132 
	C302.781219,242.527328 302.685272,241.766510 302.761932,240.155502 
	C302.095154,229.781799 301.428375,219.408081 300.889252,208.217926 
	C300.723633,207.141937 300.558014,206.065964 300.622528,204.171524 
	C300.009613,194.457260 299.396667,184.743011 298.921295,174.268692 
	C298.799652,173.513687 298.678040,172.758698 298.751801,171.158554 
	C297.915802,157.647064 297.078918,144.135635 296.244049,130.624069 
	C295.623260,120.576408 294.970978,110.530533 294.392914,100.480408 
	C293.176605,79.335403 291.999878,58.188133 290.950531,36.228184 
	C290.792999,35.149979 290.635498,34.071770 290.654724,32.159710 
	C290.438416,29.916214 290.222076,27.672718 289.986816,25.232882 
	C287.693817,25.405970 285.815094,25.286629 284.073975,25.720024 
	C268.418884,29.616840 252.429413,32.580593 237.250488,37.864639 
	C221.946701,43.192146 207.454727,50.851654 192.779648,57.897591 
	C192.779648,57.897591 192.567612,57.508480 191.887924,57.675182 
	C189.135956,59.305782 186.383987,60.936378 183.974945,62.980015 
	C183.859619,62.841549 183.744293,62.703083 182.970352,62.703125 
	C181.303726,63.781769 179.637100,64.860413 177.976440,65.985466 
	C177.976440,65.985466 177.938416,65.958168 177.260559,66.052994 
	C175.070023,67.598068 172.879486,69.143143 170.847443,70.818611 
	C170.847443,70.818611 170.745911,70.640251 170.113983,70.733780 
	C169.300400,71.373672 168.486801,72.013565 167.885010,72.885277 
	C167.885010,72.885277 167.715424,72.621010 167.091278,72.742500 
	C166.290817,73.391006 165.490356,74.039513 164.789780,74.795113 
	C164.789780,74.795113 164.772156,74.649719 164.155869,74.803482 
	C163.876816,75.110550 163.597763,75.417625 163.111755,75.723450 
	C163.111755,75.723450 162.986755,75.888405 162.371399,75.946220 
	C161.790741,76.498238 161.210068,77.050255 160.966476,77.951759 
	C160.966476,77.951759 160.649612,77.583832 159.982483,77.749512 
	C155.855881,81.005760 151.729279,84.262001 148.022827,87.909256 
	C147.878677,87.783882 147.734512,87.658501 146.974182,87.686478 
	C146.215225,88.389488 145.456284,89.092491 144.825928,89.827560 
	C144.825928,89.827560 144.781815,89.702599 144.258026,89.852684 
	C144.064285,90.148468 143.870544,90.444252 143.795090,90.784698 
	C143.795090,90.784698 143.747284,90.667641 143.172455,90.829170 
	C142.636292,91.401337 142.100128,91.973511 141.896378,92.701111 
	C141.896378,92.701111 141.559662,92.532249 140.964508,92.706825 
	C140.246262,93.421341 139.528000,94.135857 138.899124,94.897324 
	C138.899124,94.897324 138.887878,94.796997 138.275253,94.921082 
	C137.743530,95.533798 137.211807,96.146523 136.794815,96.806496 
	C136.794815,96.806496 136.754410,96.689186 136.232407,96.831787 
	C136.040237,97.124191 135.848068,97.416595 135.962234,97.837906 
	C135.962234,97.837906 135.675415,97.669998 135.087448,97.887398 
	C134.248352,98.801743 133.409256,99.716087 132.946945,100.861900 
	C132.946945,100.861900 132.592651,100.597275 132.133621,100.730972 
	C131.837387,100.893669 131.644073,101.137833 131.530655,101.730850 
	C131.530655,101.730850 131.492294,101.465233 130.941162,101.631027 
	C130.591141,102.062836 130.241119,102.494652 129.977600,102.978905 
	C129.977600,102.978905 129.930771,102.889244 129.282700,103.072762 
	C125.354889,107.162971 121.427078,111.253174 117.451355,115.472496 
	C117.451355,115.472496 117.352768,115.568657 116.951576,115.730164 
	C116.701859,115.913704 116.566444,116.160065 116.556198,116.567070 
	C116.556198,116.567070 116.464691,116.530838 115.950172,116.801407 
	C115.503578,117.425453 115.056984,118.049500 114.799652,118.806183 
	C114.799652,118.806183 114.662445,118.620201 114.095169,118.839371 
	C113.619110,119.476364 113.143044,120.113350 112.794350,120.798737 
	C112.794350,120.798737 112.753258,120.668823 112.142082,120.905190 
	C111.064934,122.252655 109.987778,123.600128 108.992447,124.982536 
	C108.992447,124.982536 108.940582,124.910248 108.376968,125.184227 
	C107.804443,126.041847 107.231918,126.899467 106.780289,127.800179 
	C106.780289,127.800179 106.730942,127.681702 106.221954,127.860390 
	C106.042343,128.160355 105.862740,128.460312 105.805161,128.812683 
M106.823227,508.768707 
	C107.096718,508.966339 107.370216,509.163971 107.946495,509.312561 
	C107.946495,509.312561 107.641800,509.380829 107.825974,509.917938 
	C108.379524,510.417816 108.933075,510.917664 109.653999,511.290070 
	C109.653999,511.290070 109.543777,511.469269 109.754601,512.099609 
	C112.366570,514.853760 114.978546,517.607849 117.803207,520.107666 
	C117.803207,520.107666 117.631416,520.391235 117.775909,520.869324 
	C117.969543,521.173157 118.245796,521.341248 119.021538,521.148315 
	C119.021538,521.148315 118.608383,521.387329 118.785347,521.947144 
	C119.372078,522.441711 119.958809,522.936279 120.677986,523.352539 
	C120.677986,523.352539 120.607246,523.489197 120.750031,523.924927 
	C120.924911,524.202148 121.174561,524.364197 121.589729,524.429260 
	C121.589729,524.429260 121.593201,524.521790 121.858093,525.090576 
	C123.402100,526.519287 124.946114,527.947998 126.579826,529.389709 
	C126.579826,529.389709 126.603920,529.477112 126.764267,529.935059 
	C126.966797,530.220886 127.243111,530.370422 127.886742,530.249573 
	C127.886742,530.249573 127.618889,530.429565 127.837395,531.049622 
	C131.547729,534.383850 135.258087,537.718018 138.995300,540.997925 
	C138.995300,540.997925 138.947601,541.035522 139.174423,541.560608 
	C139.655197,541.853699 140.135971,542.146729 141.017624,542.066284 
	C140.883102,542.188171 140.748566,542.310120 140.805496,542.896057 
	C141.093384,543.050354 141.381271,543.204590 141.875839,543.117249 
	C141.875839,543.117249 141.631134,543.320312 141.885223,543.925781 
	C143.954163,545.545105 146.023102,547.164490 148.101791,548.931824 
	C148.101791,548.931824 148.245621,548.895813 148.566086,549.456787 
	C152.224762,552.123901 155.883438,554.791016 159.642990,557.038940 
	C159.642990,557.038940 159.575912,557.464661 159.911301,558.025574 
	C164.147049,560.826416 168.382797,563.627197 172.924011,566.073853 
	C172.924011,566.073853 172.644424,566.448792 172.976028,567.003235 
	C174.486603,567.842468 175.997177,568.681641 177.600723,569.484680 
	C177.600723,569.484680 177.596283,569.584412 177.936569,570.086731 
	C178.831604,570.541260 179.726639,570.995789 180.881363,570.986694 
	C180.800659,571.143982 180.719940,571.301208 181.034317,571.982117 
	C183.219528,573.148254 185.404739,574.314392 187.957123,575.146484 
	C187.957123,575.146484 187.615112,575.506348 188.001266,576.037842 
	C190.861664,577.516235 193.722046,578.994629 196.669220,580.278198 
	C196.669220,580.278198 196.651276,580.490723 196.985016,580.883118 
	C197.320648,580.934265 197.656265,580.985413 197.994553,580.994385 
	C197.994553,580.994385 197.961136,581.020386 198.284363,581.536560 
	C198.851868,581.708557 199.419388,581.880493 199.992554,581.996399 
	C199.992554,581.996399 199.948502,582.031494 200.259506,582.559448 
	C200.834122,582.724487 201.408737,582.889526 201.990723,582.996521 
	C201.990723,582.996521 201.946762,583.035095 202.283005,583.560547 
	C203.040909,583.883240 203.798813,584.205933 204.632889,584.486084 
	C204.632889,584.486084 204.680389,584.559204 205.180298,584.994690 
	C209.116333,586.678406 213.052383,588.362122 217.346313,590.509094 
	C217.908661,590.637268 218.471008,590.765442 219.505722,591.407410 
	C242.122925,600.902283 265.483856,607.549377 290.663513,610.847107 
	C290.663513,606.876099 290.663513,603.926270 290.908478,600.245361 
	C290.889801,599.478455 290.871124,598.711548 291.173462,597.212830 
	C291.641876,587.136108 292.110291,577.059387 292.847870,566.216370 
	C292.855286,565.139160 292.862671,564.061951 293.132080,562.197205 
	C293.605713,552.455139 294.079315,542.713135 294.799377,532.334167 
	C294.775055,531.883240 294.750763,531.432373 295.012604,530.151489 
	C295.575470,519.092529 296.138336,508.033630 296.925079,496.326111 
	C296.882538,495.873779 296.839996,495.421417 297.061951,494.112854 
	C297.535278,484.398315 298.008606,474.683746 298.760376,464.209625 
	C298.763062,463.135223 298.765747,462.060791 299.027496,460.124573 
	C299.468201,450.476898 299.908905,440.829193 300.670319,430.387573 
	C300.695587,429.251892 300.720856,428.116241 301.001099,426.109192 
	C301.571320,415.058228 302.141541,404.007233 302.903412,392.233459 
	C302.873352,391.489594 302.843262,390.745728 303.041626,389.151794 
	C303.546417,379.756226 304.051208,370.360657 304.791199,360.196747 
	C304.783508,359.128845 304.775818,358.060974 305.002441,356.136017 
	C305.002441,352.726410 305.002441,349.316833 305.002441,345.125671 
	C300.386353,345.475159 295.725922,345.828033 290.386536,346.048340 
	C289.942902,346.153137 289.499298,346.257935 288.128082,346.190186 
	C256.055267,347.954132 223.980621,349.686127 191.911041,351.507233 
	C184.957748,351.902069 178.022659,352.616943 170.266998,353.039948 
	C169.178696,353.165680 168.090408,353.291412 166.099411,353.197266 
	C156.415100,353.836792 146.730774,354.476288 136.238113,355.012451 
	C135.165070,355.143799 134.092010,355.275116 132.110947,355.192993 
	C116.861679,356.013000 101.609734,356.787048 86.364464,357.675659 
	C80.254868,358.031769 74.159966,358.640076 67.155556,359.014618 
	C64.445045,359.170837 61.734528,359.327026 58.161594,359.247589 
	C53.203758,359.537720 48.247559,359.860992 43.287468,360.105408 
	C40.411186,360.247162 39.804020,361.538147 41.023628,364.635834 
	C41.109680,365.075531 41.195736,365.515228 41.112843,366.770599 
	C41.777454,369.834717 42.442066,372.898865 43.038826,376.633179 
	C43.136414,377.069977 43.234005,377.506775 43.181358,378.727783 
	C43.476276,380.016418 43.679989,381.334137 44.079990,382.589294 
	C48.934093,397.820923 53.817104,413.043396 58.824619,428.090729 
	C58.824619,428.090729 58.645752,428.220886 58.700382,428.981995 
	C61.784615,435.676636 64.868851,442.371307 68.003525,449.018768 
	C68.003525,449.018768 67.935303,449.029541 67.927071,449.574646 
	C68.167374,449.825195 68.407677,450.075775 68.824821,450.053864 
	C68.824821,450.053864 68.607643,450.295410 68.673248,450.961121 
	C69.328621,452.078857 69.983994,453.196564 70.881187,454.111572 
	C70.881187,454.111572 70.608772,454.270844 70.642654,454.866608 
	C70.968529,455.340912 71.294403,455.815216 71.823601,455.991730 
	C71.823601,455.991730 71.607376,456.288361 71.666344,456.882538 
	C72.018288,457.338684 72.370232,457.794830 72.896889,458.072662 
	C72.896889,458.072662 72.687927,458.209259 72.797356,458.926819 
	C75.443275,463.367645 78.089195,467.808472 80.892235,472.081238 
	C80.892235,472.081238 80.698212,472.204865 80.845093,472.896179 
	C83.495064,476.787842 86.145035,480.679504 88.805550,484.845062 
	C88.805550,484.845062 89.041206,484.984955 89.139175,485.657715 
	C90.376816,487.257446 91.614449,488.857208 92.920166,490.788696 
	C92.920166,490.788696 93.210342,490.963379 93.398750,491.607941 
	C96.507652,495.516663 99.616554,499.425385 102.807304,503.187500 
	C102.807304,503.187500 102.664299,503.275543 102.826836,503.863525 
	C103.598724,504.761322 104.370605,505.659119 105.183029,506.812988 
	C105.183029,506.812988 105.434364,506.876617 105.591690,507.366516 
	C105.973946,507.681549 106.356209,507.996613 106.885483,508.142303 
	C106.885483,508.142303 106.696060,508.262329 106.823227,508.768707 
M427.246490,37.237034 
	C410.465118,31.827063 393.501007,27.235176 375.336456,25.175274 
	C370.254181,113.738815 365.203400,201.753738 360.105164,290.595276 
	C448.860992,285.488312 536.848755,280.425537 625.102661,275.347473 
	C625.010132,273.821930 625.032715,273.008087 624.900696,272.220123 
	C624.269287,268.451385 623.658630,264.677521 622.928040,260.927368 
	C612.458008,207.184341 588.700867,160.013657 552.091797,119.428490 
	C517.842163,81.459030 476.359436,54.200832 427.246490,37.237034 
M611.006470,359.545227 
	C571.604248,357.301392 532.201111,355.072815 492.799988,352.809570 
	C450.726776,350.392792 408.655701,347.938843 366.582489,345.522400 
	C364.644287,345.411072 362.694092,345.508118 360.116760,345.508118 
	C365.204529,434.106232 370.257172,522.092957 375.357574,610.911377 
	C437.985413,601.257019 491.769836,575.151123 536.934875,531.878052 
	C585.769836,485.088745 614.985962,427.938873 625.539001,360.583221 
	C620.487793,360.241516 616.210999,359.952179 611.006470,359.545227 
z"/>
<path fill="#FFFEFE" opacity="1.000000" stroke="none" 
	d="
M427.621613,37.359627 
	C476.359436,54.200832 517.842163,81.459030 552.091797,119.428490 
	C588.700867,160.013657 612.458008,207.184341 622.928040,260.927368 
	C623.658630,264.677521 624.269287,268.451385 624.900696,272.220123 
	C625.032715,273.008087 625.010132,273.821930 625.102661,275.347473 
	C536.848755,280.425537 448.860992,285.488312 360.105164,290.595276 
	C365.203400,201.753738 370.254181,113.738815 375.336456,25.175274 
	C393.501007,27.235176 410.465118,31.827063 427.621613,37.359627 
z"/>
<path fill="#FFFEFE" opacity="1.000000" stroke="none" 
	d="
M611.470337,359.604034 
	C616.210999,359.952179 620.487793,360.241516 625.539001,360.583221 
	C614.985962,427.938873 585.769836,485.088745 536.934875,531.878052 
	C491.769836,575.151123 437.985413,601.257019 375.357574,610.911377 
	C370.257172,522.092957 365.204529,434.106232 360.116760,345.508118 
	C362.694092,345.508118 364.644287,345.411072 366.582489,345.522400 
	C408.655701,347.938843 450.726776,350.392792 492.799988,352.809570 
	C532.201111,355.072815 571.604248,357.301392 611.470337,359.604034 
z"/>
<path fill="#FFFEFE" opacity="1.000000" stroke="none" 
	d="
M292.870087,562.984741 
	C292.862671,564.061951 292.855286,565.139160 292.357056,566.733643 
	C291.256775,574.084290 290.466187,580.908447 290.114990,587.755127 
	C289.941864,591.130127 290.580902,594.546814 290.852448,597.944641 
	C290.871124,598.711548 290.889801,599.478455 290.429810,600.730225 
	C289.644531,602.109497 289.134735,602.988342 289.064392,603.900940 
	C288.632324,609.508362 288.358429,609.758850 282.798248,608.428833 
	C279.745789,607.698730 276.730316,606.815186 273.683441,606.060425 
	C264.086823,603.682983 254.379715,601.682068 244.913712,598.868164 
	C236.721313,596.432861 228.806183,593.068420 220.739563,590.195984 
	C220.308334,590.042358 219.608276,590.643738 219.033356,590.893677 
	C218.471008,590.765442 217.908661,590.637268 216.989868,589.983643 
	C212.649078,587.825195 208.664734,586.192200 204.680389,584.559204 
	C204.680389,584.559204 204.632889,584.486084 204.592194,584.146240 
	C203.683258,583.549255 202.815002,583.292175 201.946762,583.035095 
	C201.946762,583.035095 201.990723,582.996521 201.834274,582.755249 
	C201.101379,582.353149 200.524948,582.192322 199.948502,582.031494 
	C199.948502,582.031494 199.992554,581.996399 199.839142,581.753418 
	C199.110870,581.347107 198.536011,581.183777 197.961136,581.020386 
	C197.961136,581.020386 197.994553,580.994385 197.846283,580.777222 
	C197.349091,580.536987 197.000183,580.513855 196.651276,580.490723 
	C196.651276,580.490723 196.669220,580.278198 196.651978,580.008301 
	C193.628189,578.327759 190.621643,576.917053 187.615112,575.506348 
	C187.615112,575.506348 187.957123,575.146484 187.764267,574.958862 
	C185.260681,573.666931 182.949951,572.562744 180.639221,571.458496 
	C180.719940,571.301208 180.800659,571.143982 180.749969,570.842896 
	C179.611130,570.327515 178.603714,569.955994 177.596283,569.584412 
	C177.596283,569.584412 177.600723,569.484680 177.576004,569.145203 
	C175.915665,568.020081 174.280045,567.234436 172.644424,566.448792 
	C172.644424,566.448792 172.924011,566.073853 172.775970,565.896606 
	C168.277267,562.967773 163.926590,560.216248 159.575912,557.464661 
	C159.575912,557.464661 159.642990,557.038940 159.627060,556.892029 
	C155.822632,554.128662 152.034119,551.512268 148.245621,548.895813 
	C148.245621,548.895813 148.101791,548.931824 148.075119,548.510010 
	C145.909348,546.498901 143.770233,544.909607 141.631134,543.320312 
	C141.631134,543.320312 141.875839,543.117249 141.756470,542.944092 
	C141.296082,542.658020 140.955048,542.544983 140.614014,542.432007 
	C140.748566,542.310120 140.883102,542.188171 140.819016,541.924683 
	C140.062805,541.533936 139.505203,541.284729 138.947601,541.035522 
	C138.947601,541.035522 138.995300,540.997925 138.959930,540.676880 
	C135.156021,537.047058 131.387451,533.738342 127.618889,530.429565 
	C127.618889,530.429565 127.886742,530.249573 127.747986,530.024780 
	C127.274124,529.692322 126.939018,529.584717 126.603912,529.477112 
	C126.603920,529.477112 126.579826,529.389709 126.672928,529.007202 
	C125.041748,527.257019 123.317474,525.889404 121.593201,524.521790 
	C121.593201,524.521790 121.589729,524.429260 121.584564,524.134155 
	C121.255356,523.722473 120.931305,523.605835 120.607254,523.489197 
	C120.607246,523.489197 120.677986,523.352539 120.651917,523.053101 
	C119.953362,522.298279 119.280876,521.842773 118.608383,521.387329 
	C118.608383,521.387329 119.021538,521.148315 118.818901,520.970825 
	C118.287979,520.659302 117.959694,520.525269 117.631409,520.391235 
	C117.631416,520.391235 117.803207,520.107666 117.791977,519.874512 
	C115.035103,516.917297 112.289444,514.193298 109.543777,511.469269 
	C109.543777,511.469269 109.653999,511.290070 109.682449,510.990601 
	C109.021202,510.254395 108.331497,509.817627 107.641800,509.380829 
	C107.641800,509.380829 107.946495,509.312561 107.797836,509.046417 
	C107.331482,508.607635 107.013779,508.434967 106.696060,508.262329 
	C106.696060,508.262329 106.885483,508.142303 106.809738,507.950592 
	C106.300781,507.464813 105.867569,507.170715 105.434357,506.876617 
	C105.434364,506.876617 105.183029,506.812988 105.137634,506.355896 
	C104.282921,505.024384 103.473618,504.149963 102.664307,503.275543 
	C102.664299,503.275543 102.807304,503.187500 102.743988,502.894775 
	C99.523895,498.722504 96.367126,494.842926 93.210342,490.963379 
	C93.210342,490.963379 92.920166,490.788696 92.847107,490.247955 
	C91.529762,488.133148 90.285477,486.559052 89.041199,484.984955 
	C89.041206,484.984955 88.805550,484.845062 88.778549,484.319580 
	C86.067101,479.931000 83.382652,476.067932 80.698204,472.204865 
	C80.698212,472.204865 80.892235,472.081238 80.877182,471.790649 
	C78.137390,467.069794 75.412659,462.639526 72.687927,458.209259 
	C72.687927,458.209259 72.896889,458.072662 72.876663,457.825348 
	C72.440086,457.148132 72.023735,456.718262 71.607376,456.288361 
	C71.607376,456.288361 71.823601,455.991730 71.815842,455.806763 
	C71.408310,455.171509 71.008537,454.721191 70.608765,454.270844 
	C70.608772,454.270844 70.881187,454.111572 70.870163,453.838196 
	C70.108635,452.475037 69.358139,451.385223 68.607635,450.295410 
	C68.607643,450.295410 68.824821,450.053864 68.770508,449.910950 
	C68.455902,449.521851 68.195602,449.275696 67.935303,449.029541 
	C67.935303,449.029541 68.003525,449.018768 68.008926,448.648315 
	C66.292122,444.079956 64.683685,439.830231 62.806210,435.702942 
	C61.628429,433.113831 60.046413,430.708588 58.645760,428.220886 
	C58.645752,428.220886 58.824619,428.090729 58.831787,427.783325 
	C58.052376,424.965637 57.211514,422.470856 56.488419,419.942383 
	C52.957588,407.596008 49.502228,395.227783 45.897957,382.903046 
	C45.385201,381.149658 44.203629,379.591888 43.331600,377.943573 
	C43.234005,377.506775 43.136414,377.069977 43.337326,376.035217 
	C42.851151,372.276489 42.066471,369.115692 41.281792,365.954926 
	C41.195736,365.515228 41.109680,365.075531 41.367790,364.067444 
	C43.153198,362.981873 44.558300,362.294006 46.042507,361.979797 
	C50.352684,361.067352 54.694569,360.304688 59.024014,359.483246 
	C61.734528,359.327026 64.445045,359.170837 67.909279,359.349976 
	C70.315659,359.780457 71.975662,360.026703 73.619797,359.946716 
	C86.544693,359.317749 99.466835,358.631836 112.389206,357.951813 
	C118.517685,357.629333 124.648521,357.331726 130.768005,356.882660 
	C131.550232,356.825287 132.270172,355.919312 133.018967,355.406433 
	C134.092010,355.275116 135.165070,355.143799 136.944611,355.342438 
	C146.858017,355.420197 156.065918,355.194794 165.269531,354.853607 
	C165.863983,354.831573 166.425339,353.916718 167.002106,353.417175 
	C168.090408,353.291412 169.178696,353.165680 170.979446,353.379822 
	C172.346405,353.809143 173.007233,354.008972 173.654526,353.971985 
	C190.356506,353.017212 207.053970,351.979736 223.758865,351.079987 
	C238.324570,350.295441 252.898834,349.670410 267.468414,348.956665 
	C273.923737,348.640442 280.380310,348.328247 286.826447,347.874573 
	C287.601135,347.820038 288.314087,346.888000 289.055664,346.362732 
	C289.499298,346.257935 289.942902,346.153137 291.030212,346.384583 
	C295.263641,346.856812 299.712952,345.771057 302.177917,347.505493 
	C304.243774,348.959106 303.993103,353.704956 304.768127,356.993073 
	C304.775818,358.060974 304.783508,359.128845 304.317810,360.719055 
	C303.236450,367.750336 302.459778,374.249878 302.095093,380.772400 
	C301.924347,383.825989 302.549042,386.923981 302.813232,390.001862 
	C302.843262,390.745728 302.873352,391.489594 302.437561,392.721588 
	C301.324799,400.544342 300.486237,407.869080 300.108643,415.217560 
	C299.908234,419.117340 300.507721,423.058228 300.746124,426.980560 
	C300.720856,428.116241 300.695587,429.251892 300.256653,431.020050 
	C299.364716,434.548401 298.524750,437.438751 298.480499,440.341248 
	C298.375641,447.219910 298.648315,454.104309 298.768402,460.986389 
	C298.765747,462.060791 298.763062,463.135223 298.272736,464.737061 
	C297.195374,473.584595 296.549316,481.901428 296.066223,490.227692 
	C295.975677,491.788757 296.536957,493.387634 296.797455,494.969086 
	C296.839996,495.421417 296.882538,495.873779 296.442932,496.772217 
	C295.651703,497.943176 295.112610,498.654572 295.069397,499.394928 
	C294.674377,506.164734 294.225555,512.936707 294.086914,519.714111 
	C294.010162,523.463928 294.494873,527.225281 294.726501,530.981445 
	C294.750763,531.432373 294.775055,531.883240 294.323883,532.791748 
	C293.243622,539.262939 292.399475,545.265503 292.120117,551.294250 
	C291.940460,555.171143 292.591400,559.086609 292.870087,562.984741 
z"/>
<path fill="#FFFEFE" opacity="1.000000" stroke="none" 
	d="
M298.556396,172.003693 
	C298.678040,172.758698 298.799652,173.513687 298.597992,174.971252 
	C298.195892,182.576324 297.881744,189.488007 298.150208,196.376984 
	C298.263092,199.272705 299.607727,202.120438 300.392395,204.989975 
	C300.558014,206.065964 300.723633,207.141937 300.577576,208.949219 
	C300.528564,219.556702 300.765961,229.433807 301.117493,239.306824 
	C301.138245,239.889847 302.077484,240.440170 302.589325,241.005707 
	C302.685272,241.766510 302.781219,242.527328 302.559937,243.995453 
	C302.170258,250.165512 301.751984,255.652374 302.131104,261.083588 
	C302.454620,265.717804 303.694458,270.288025 304.528931,274.886566 
	C304.644623,275.674316 304.760315,276.462036 304.563446,277.967957 
	C304.166046,279.502747 304.018127,280.318512 304.006073,281.136230 
	C303.883606,289.441467 303.926422,289.043671 295.649231,288.281769 
	C290.182098,287.778503 284.591125,288.620697 279.055603,288.860474 
	C278.589386,288.889740 278.123138,288.919006 277.209198,288.455322 
	C270.582489,287.317169 264.417511,286.412720 258.221741,286.077881 
	C242.828018,285.245911 227.414917,284.773041 212.020462,283.952209 
	C205.093521,283.582886 198.203262,282.459106 191.276154,282.181519 
	C186.217560,281.978790 181.125946,282.599640 176.049057,282.853394 
	C175.586990,282.886200 175.124908,282.918976 174.215424,282.461670 
	C167.596542,281.322327 161.437500,280.393890 155.249405,280.118561 
	C150.870377,279.923737 146.452026,280.612671 142.051239,280.907104 
	C140.965836,280.894257 139.880417,280.881439 138.274200,280.399048 
	C130.913834,279.293030 124.083977,278.483856 117.230270,278.099152 
	C114.191444,277.928589 111.104439,278.616241 108.039307,278.914368 
	C107.276627,278.930695 106.513947,278.947052 105.264542,278.478973 
	C104.060425,277.674896 103.354218,277.106354 102.623909,277.073486 
	C93.695297,276.671753 84.755722,276.477875 75.834236,275.964844 
	C68.424118,275.538757 61.041935,274.609802 53.630630,274.231842 
	C51.422573,274.119232 49.157997,275.114807 46.919319,275.602600 
	C46.191982,275.621765 45.464642,275.640869 44.330730,275.245941 
	C42.993870,273.898071 42.063583,272.964264 41.133301,272.030426 
	C41.139240,271.275665 41.145176,270.520905 41.586525,269.294800 
	C42.368473,265.884857 42.715012,262.946228 43.061554,260.007599 
	C43.093895,259.254639 43.126236,258.501678 43.606812,257.305542 
	C44.376602,254.910263 44.698158,252.958145 45.019714,251.006012 
	C45.078438,250.245804 45.137165,249.485596 45.675354,248.271957 
	C48.092339,242.080536 50.197365,236.391785 51.904137,230.585968 
	C52.917778,227.137924 53.304077,223.505463 53.972435,219.955917 
	C53.972435,219.955917 54.006725,219.985611 54.317799,219.829407 
	C55.352520,217.244156 56.076168,214.815109 56.799820,212.386078 
	C56.799820,212.386078 56.750313,212.186462 57.160366,211.950577 
	C57.907528,210.372269 58.244637,209.029861 58.581745,207.687439 
	C58.581745,207.687439 58.692612,208.026031 58.979946,207.813629 
	C61.111950,202.881790 62.956619,198.162369 64.801285,193.442947 
	C64.801292,193.442947 64.750626,193.187668 65.189026,192.938324 
	C65.991119,191.573547 66.354813,190.458130 66.718506,189.342697 
	C66.718506,189.342697 66.711288,189.138275 67.042809,188.928253 
	C67.416557,188.356079 67.458778,187.993912 67.500999,187.631744 
	C67.500999,187.631744 67.817108,187.556122 68.008728,187.554230 
	C68.323479,186.926117 68.446617,186.299911 68.569763,185.673706 
	C68.569763,185.673706 68.808578,186.027130 69.022705,185.800354 
	C69.330208,184.940506 69.423592,184.307434 69.516968,183.674377 
	C69.516968,183.674377 69.935699,183.764709 70.081482,183.659546 
	C70.319405,182.923950 70.411545,182.293488 70.503693,181.663040 
	C70.503693,181.663040 70.924110,181.650375 71.068359,181.608643 
	C71.323868,180.934937 71.435127,180.302933 71.546387,179.670944 
	C71.546387,179.670944 71.645988,179.955734 71.938583,179.770691 
	C72.360237,178.955002 72.489304,178.324356 72.618370,177.693726 
	C72.618370,177.693726 72.808922,178.048965 73.063065,177.857010 
	C76.218674,172.230087 79.120132,166.795135 82.021599,161.360168 
	C82.021599,161.360168 82.082596,161.008209 82.617722,160.873535 
	C83.746307,159.464005 84.339775,158.189148 84.933243,156.914291 
	C84.933243,156.914291 85.000397,156.982819 85.331802,156.943802 
	C86.347305,155.512054 87.031387,154.119324 87.715485,152.726593 
	C87.715485,152.726593 87.836693,152.875504 88.103683,152.787323 
	C89.092865,151.320953 89.815063,149.942795 90.537262,148.564621 
	C90.537262,148.564621 90.451546,148.762756 90.840500,148.699219 
	C94.693619,144.776886 99.162689,141.605347 99.935204,135.905792 
	C99.935204,135.905792 99.990341,135.981384 100.315865,135.953995 
	C101.535576,134.474670 102.429764,133.022736 103.323959,131.570801 
	C103.323959,131.570801 103.429047,131.513107 103.771523,131.519623 
	C104.341759,130.943481 104.569511,130.360825 104.797272,129.778168 
	C104.797272,129.778168 104.871284,129.881531 105.092064,129.794098 
	C105.458298,129.368515 105.603752,129.030380 105.749207,128.692230 
	C105.749199,128.692230 105.805161,128.812683 106.035477,128.748291 
	C106.420853,128.349838 106.575897,128.015778 106.730942,127.681702 
	C106.730942,127.681702 106.780289,127.800179 107.065445,127.743713 
	C107.880600,126.761574 108.410591,125.835915 108.940582,124.910248 
	C108.940582,124.910248 108.992447,124.982536 109.303009,124.955383 
	C110.660141,123.508430 111.706703,122.088631 112.753265,120.668823 
	C112.753258,120.668823 112.794350,120.798737 113.068794,120.751801 
	C113.782974,120.009972 114.222710,119.315086 114.662445,118.620201 
	C114.662445,118.620201 114.799652,118.806183 115.053787,118.740341 
	C115.693504,117.959946 116.079094,117.245392 116.464691,116.530838 
	C116.464691,116.530838 116.556198,116.567070 116.848282,116.572868 
	C117.211174,116.241997 117.281975,115.905327 117.352768,115.568657 
	C117.352768,115.568657 117.451355,115.472496 117.813675,115.574280 
	C122.094261,111.413788 126.012512,107.151512 129.930771,102.889244 
	C129.930771,102.889244 129.977600,102.978905 130.275223,102.951401 
	C130.879318,102.437675 131.185806,101.951454 131.492294,101.465233 
	C131.492294,101.465233 131.530655,101.730850 131.840393,101.663620 
	C132.297638,101.263351 132.445145,100.930313 132.592651,100.597275 
	C132.592651,100.597275 132.946945,100.861900 133.130127,100.761307 
	C134.100693,99.663811 134.888062,98.666908 135.675415,97.669998 
	C135.675415,97.669998 135.962234,97.837906 136.103409,97.754913 
	C136.414520,97.344345 136.584457,97.016762 136.754410,96.689186 
	C136.754410,96.689186 136.794815,96.806496 137.065613,96.765671 
	C137.853561,96.082230 138.370728,95.439613 138.887878,94.796997 
	C138.887878,94.796997 138.899124,94.897324 139.213501,94.902542 
	C140.205139,94.115929 140.882401,93.324089 141.559662,92.532242 
	C141.559662,92.532249 141.896378,92.701111 142.069427,92.674164 
	C142.744095,91.987366 143.245682,91.327507 143.747284,90.667641 
	C143.747284,90.667641 143.795090,90.784698 144.030060,90.736313 
	C144.437286,90.359482 144.609558,90.031036 144.781815,89.702599 
	C144.781815,89.702599 144.825928,89.827560 145.109802,89.780121 
	C146.125885,88.999489 146.858109,88.266296 147.590332,87.533112 
	C147.734512,87.658501 147.878677,87.783882 148.174286,87.836319 
	C152.433685,84.370201 156.541656,80.977020 160.649612,77.583832 
	C160.649612,77.583832 160.966476,77.951759 161.151001,77.863304 
	C161.885925,77.146034 162.436340,76.517220 162.986755,75.888397 
	C162.986755,75.888405 163.111755,75.723450 163.560974,75.713928 
	C164.264191,75.352844 164.518173,75.001282 164.772156,74.649719 
	C164.772156,74.649719 164.789780,74.795113 165.097565,74.817345 
	C166.175369,74.100052 166.945389,73.360535 167.715424,72.621010 
	C167.715424,72.621010 167.885010,72.885277 168.135361,72.854752 
	C169.172440,72.096230 169.959183,71.368240 170.745911,70.640251 
	C170.745911,70.640251 170.847443,70.818611 171.141113,70.826843 
	C173.602676,69.209435 175.770538,67.583801 177.938416,65.958168 
	C177.938416,65.958168 177.976440,65.985466 178.343658,65.986176 
	C180.350235,64.846130 181.989609,63.705376 183.628983,62.564617 
	C183.744293,62.703083 183.859619,62.841549 184.175812,62.882778 
	C187.106995,61.026520 189.837296,59.267498 192.567612,57.508476 
	C192.567612,57.508480 192.779648,57.897591 193.071976,57.843616 
	C194.017502,57.755543 194.767380,57.920513 195.309341,57.657337 
	C202.852310,53.994518 210.216858,49.921803 217.917587,46.634663 
	C237.610916,38.228352 258.046478,32.106800 279.108887,28.235653 
	C283.403656,27.446297 289.001343,25.117937 290.025940,32.823063 
	C290.035980,32.898602 290.321228,32.937538 290.477997,32.993561 
	C290.635498,34.071770 290.792999,35.149979 290.617432,36.950546 
	C290.562683,47.949627 290.789978,58.228069 291.138519,68.502403 
	C291.346436,74.632744 291.696564,80.759537 292.065765,86.882912 
	C293.362335,108.386063 294.703125,129.886536 296.008575,151.389160 
	C296.380249,157.511063 296.638885,163.640442 297.088196,169.756195 
	C297.145569,170.537094 298.046356,171.256042 298.556396,172.003693 
z"/>
<path fill="#B82E46" opacity="1.000000" stroke="none" 
	d="
M288.591858,346.276428 
	C288.314087,346.888000 287.601135,347.820038 286.826447,347.874573 
	C280.380310,348.328247 273.923737,348.640442 267.468414,348.956665 
	C252.898834,349.670410 238.324570,350.295441 223.758865,351.079987 
	C207.053970,351.979736 190.356506,353.017212 173.654526,353.971985 
	C173.007233,354.008972 172.346405,353.809143 171.385529,353.452026 
	C178.022659,352.616943 184.957748,351.902069 191.911041,351.507233 
	C223.980621,349.686127 256.055267,347.954132 288.591858,346.276428 
z"/>
<path fill="#B52640" opacity="1.000000" stroke="none" 
	d="
M290.566345,32.576637 
	C290.321228,32.937538 290.035980,32.898602 290.025940,32.823063 
	C289.001343,25.117937 283.403656,27.446297 279.108887,28.235653 
	C258.046478,32.106800 237.610916,38.228352 217.917587,46.634663 
	C210.216858,49.921803 202.852310,53.994518 195.309341,57.657337 
	C194.767380,57.920513 194.017502,57.755543 192.985687,57.639538 
	C207.454727,50.851654 221.946701,43.192146 237.250488,37.864639 
	C252.429413,32.580593 268.418884,29.616840 284.073975,25.720024 
	C285.815094,25.286629 287.693817,25.405970 289.986816,25.232882 
	C290.222076,27.672718 290.438416,29.916214 290.566345,32.576637 
z"/>
<path fill="#B52640" opacity="1.000000" stroke="none" 
	d="
M298.654114,171.581116 
	C298.046356,171.256042 297.145569,170.537094 297.088196,169.756195 
	C296.638885,163.640442 296.380249,157.511063 296.008575,151.389160 
	C294.703125,129.886536 293.362335,108.386063 292.065765,86.882912 
	C291.696564,80.759537 291.346436,74.632744 291.138519,68.502403 
	C290.789978,58.228069 290.562683,47.949627 290.545624,37.357353 
	C291.999878,58.188133 293.176605,79.335403 294.392914,100.480408 
	C294.970978,110.530533 295.623260,120.576408 296.244049,130.624069 
	C297.078918,144.135635 297.915802,157.647064 298.654114,171.581116 
z"/>
<path fill="#B52640" opacity="1.000000" stroke="none" 
	d="
M176.407730,283.037292 
	C181.125946,282.599640 186.217560,281.978790 191.276154,282.181519 
	C198.203262,282.459106 205.093521,283.582886 212.020462,283.952209 
	C227.414917,284.773041 242.828018,285.245911 258.221741,286.077881 
	C264.417511,286.412720 270.582489,287.317169 276.877808,288.331360 
	C263.530334,288.045502 250.062500,287.463989 236.603745,286.718628 
	C216.654587,285.613800 196.711868,284.392792 176.407730,283.037292 
z"/>
<path fill="#B82E46" opacity="1.000000" stroke="none" 
	d="
M219.269531,591.150513 
	C219.608276,590.643738 220.308334,590.042358 220.739563,590.195984 
	C228.806183,593.068420 236.721313,596.432861 244.913712,598.868164 
	C254.379715,601.682068 264.086823,603.682983 273.683441,606.060425 
	C276.730316,606.815186 279.745789,607.698730 282.798248,608.428833 
	C288.358429,609.758850 288.632324,609.508362 289.064392,603.900940 
	C289.134735,602.988342 289.644531,602.109497 290.307343,601.095764 
	C290.663513,603.926270 290.663513,606.876099 290.663513,610.847107 
	C265.483856,607.549377 242.122925,600.902283 219.269531,591.150513 
z"/>
<path fill="#B82E46" opacity="1.000000" stroke="none" 
	d="
M132.564957,355.299713 
	C132.270172,355.919312 131.550232,356.825287 130.768005,356.882660 
	C124.648521,357.331726 118.517685,357.629333 112.389206,357.951813 
	C99.466835,358.631836 86.544693,359.317749 73.619797,359.946716 
	C71.975662,360.026703 70.315659,359.780457 68.360687,359.409485 
	C74.159966,358.640076 80.254868,358.031769 86.364464,357.675659 
	C101.609734,356.787048 116.861679,356.013000 132.564957,355.299713 
z"/>
<path fill="#B52640" opacity="1.000000" stroke="none" 
	d="
M47.363758,275.729553 
	C49.157997,275.114807 51.422573,274.119232 53.630630,274.231842 
	C61.041935,274.609802 68.424118,275.538757 75.834236,275.964844 
	C84.755722,276.477875 93.695297,276.671753 102.623909,277.073486 
	C103.354218,277.106354 104.060425,277.674896 104.897354,278.366577 
	C89.097740,277.958252 73.178391,277.181915 57.259621,276.393860 
	C54.108006,276.237854 50.958618,276.036835 47.363758,275.729553 
z"/>
<path fill="#B82E46" opacity="1.000000" stroke="none" 
	d="
M43.256481,378.335693 
	C44.203629,379.591888 45.385201,381.149658 45.897957,382.903046 
	C49.502228,395.227783 52.957588,407.596008 56.488419,419.942383 
	C57.211514,422.470856 58.052376,424.965637 58.765778,427.872070 
	C53.817104,413.043396 48.934093,397.820923 44.079990,382.589294 
	C43.679989,381.334137 43.476276,380.016418 43.256481,378.335693 
z"/>
<path fill="#B52640" opacity="1.000000" stroke="none" 
	d="
M279.419891,289.027893 
	C284.591125,288.620697 290.182098,287.778503 295.649231,288.281769 
	C303.926422,289.043671 303.883606,289.441467 304.006073,281.136230 
	C304.018127,280.318512 304.166046,279.502747 304.493256,278.363495 
	C304.940552,281.691589 305.154419,285.341827 305.333832,288.993774 
	C305.348724,289.296600 305.130646,289.610870 304.779907,290.597290 
	C296.589844,290.137909 288.187012,289.666595 279.419891,289.027893 
z"/>
<path fill="#B52640" opacity="1.000000" stroke="none" 
	d="
M142.410400,281.088715 
	C146.452026,280.612671 150.870377,279.923737 155.249405,280.118561 
	C161.437500,280.393890 167.596542,281.322327 173.885986,282.339905 
	C163.592514,282.228912 153.181030,281.749634 142.410400,281.088715 
z"/>
<path fill="#B82E46" opacity="1.000000" stroke="none" 
	d="
M166.550751,353.307220 
	C166.425339,353.916718 165.863983,354.831573 165.269531,354.853607 
	C156.065918,355.194794 146.858017,355.420197 137.348785,355.394104 
	C146.730774,354.476288 156.415100,353.836792 166.550751,353.307220 
z"/>
<path fill="#B82E46" opacity="1.000000" stroke="none" 
	d="
M291.012939,597.578735 
	C290.580902,594.546814 289.941864,591.130127 290.114990,587.755127 
	C290.466187,580.908447 291.256775,574.084290 292.222473,567.116760 
	C292.110291,577.059387 291.641876,587.136108 291.012939,597.578735 
z"/>
<path fill="#B52640" opacity="1.000000" stroke="none" 
	d="
M108.397797,279.099792 
	C111.104439,278.616241 114.191444,277.928589 117.230270,278.099152 
	C124.083977,278.483856 130.913834,279.293030 137.878967,280.293091 
	C128.255127,280.199524 118.505714,279.742371 108.397797,279.099792 
z"/>
<path fill="#B82E46" opacity="1.000000" stroke="none" 
	d="
M293.001099,562.590942 
	C292.591400,559.086609 291.940460,555.171143 292.120117,551.294250 
	C292.399475,545.265503 293.243622,539.262939 294.200684,533.110168 
	C294.079315,542.713135 293.605713,552.455139 293.001099,562.590942 
z"/>
<path fill="#B82E46" opacity="1.000000" stroke="none" 
	d="
M294.869568,530.566467 
	C294.494873,527.225281 294.010162,523.463928 294.086914,519.714111 
	C294.225555,512.936707 294.674377,506.164734 295.069397,499.394928 
	C295.112610,498.654572 295.651703,497.943176 296.330994,497.096527 
	C296.138336,508.033630 295.575470,519.092529 294.869568,530.566467 
z"/>
<path fill="#B52640" opacity="1.000000" stroke="none" 
	d="
M300.507446,204.580750 
	C299.607727,202.120438 298.263092,199.272705 298.150208,196.376984 
	C297.881744,189.488007 298.195892,182.576324 298.529236,175.351288 
	C299.396667,184.743011 300.009613,194.457260 300.507446,204.580750 
z"/>
<path fill="#B82E46" opacity="1.000000" stroke="none" 
	d="
M300.873596,426.544861 
	C300.507721,423.058228 299.908234,419.117340 300.108643,415.217560 
	C300.486237,407.869080 301.324799,400.544342 302.341766,393.083008 
	C302.141541,404.007233 301.571320,415.058228 300.873596,426.544861 
z"/>
<path fill="#B52640" opacity="1.000000" stroke="none" 
	d="
M304.629089,274.474609 
	C303.694458,270.288025 302.454620,265.717804 302.131104,261.083588 
	C301.751984,255.652374 302.170258,250.165512 302.487061,244.375641 
	C303.397369,254.053207 304.063324,264.057922 304.629089,274.474609 
z"/>
<path fill="#B52640" opacity="1.000000" stroke="none" 
	d="
M53.712265,220.208649 
	C53.304077,223.505463 52.917778,227.137924 51.904137,230.585968 
	C50.197365,236.391785 48.092339,242.080536 45.828804,247.921814 
	C48.152554,238.837204 50.802322,229.649307 53.712265,220.208649 
z"/>
<path fill="#B82E46" opacity="1.000000" stroke="none" 
	d="
M298.897949,460.555481 
	C298.648315,454.104309 298.375641,447.219910 298.480499,440.341248 
	C298.524750,437.438751 299.364716,434.548401 300.096313,431.417023 
	C299.908905,440.829193 299.468201,450.476898 298.897949,460.555481 
z"/>
<path fill="#B82E46" opacity="1.000000" stroke="none" 
	d="
M302.927429,389.576843 
	C302.549042,386.923981 301.924347,383.825989 302.095093,380.772400 
	C302.459778,374.249878 303.236450,367.750336 304.200195,361.103241 
	C304.051208,370.360657 303.546417,379.756226 302.927429,389.576843 
z"/>
<path fill="#B82E46" opacity="1.000000" stroke="none" 
	d="
M296.929688,494.540955 
	C296.536957,493.387634 295.975677,491.788757 296.066223,490.227692 
	C296.549316,481.901428 297.195374,473.584595 298.133514,465.116882 
	C298.008606,474.683746 297.535278,484.398315 296.929688,494.540955 
z"/>
<path fill="#B52640" opacity="1.000000" stroke="none" 
	d="
M302.675629,240.580597 
	C302.077484,240.440170 301.138245,239.889847 301.117493,239.306824 
	C300.765961,229.433807 300.528564,219.556702 300.513733,209.357452 
	C301.428375,219.408081 302.095154,229.781799 302.675629,240.580597 
z"/>
<path fill="#B82E46" opacity="1.000000" stroke="none" 
	d="
M304.885284,356.564545 
	C303.993103,353.704956 304.243774,348.959106 302.177917,347.505493 
	C299.712952,345.771057 295.263641,346.856812 291.369690,346.450867 
	C295.725922,345.828033 300.386353,345.475159 305.002441,345.125671 
	C305.002441,349.316833 305.002441,352.726410 304.885284,356.564545 
z"/>
<path fill="#B82E46" opacity="1.000000" stroke="none" 
	d="
M58.592804,359.365417 
	C54.694569,360.304688 50.352684,361.067352 46.042507,361.979797 
	C44.558300,362.294006 43.153198,362.981873 41.420471,363.733582 
	C39.804020,361.538147 40.411186,360.247162 43.287468,360.105408 
	C48.247559,359.860992 53.203758,359.537720 58.592804,359.365417 
z"/>
<path fill="#B52640" opacity="1.000000" stroke="none" 
	d="
M129.606735,102.981003 
	C126.012512,107.151512 122.094261,111.413788 117.837631,115.509720 
	C121.427078,111.253174 125.354889,107.162971 129.606735,102.981003 
z"/>
<path fill="#B82E46" opacity="1.000000" stroke="none" 
	d="
M58.673073,428.601440 
	C60.046413,430.708588 61.628429,433.113831 62.806210,435.702942 
	C64.683685,439.830231 66.292122,444.079956 67.983704,448.671936 
	C64.868851,442.371307 61.784615,435.676636 58.673073,428.601440 
z"/>
<path fill="#B52640" opacity="1.000000" stroke="none" 
	d="
M160.316040,77.666672 
	C156.541656,80.977020 152.433685,84.370201 147.964203,87.640823 
	C151.729279,84.262001 155.855881,81.005760 160.316040,77.666672 
z"/>
<path fill="#B52640" opacity="1.000000" stroke="none" 
	d="
M81.768974,161.548325 
	C79.120132,166.795135 76.218674,172.230087 72.955490,177.686264 
	C75.567955,172.383804 78.542152,167.060150 81.768974,161.548325 
z"/>
<path fill="#B52640" opacity="1.000000" stroke="none" 
	d="
M99.642784,136.069443 
	C99.162689,141.605347 94.693619,144.776886 90.867279,148.594299 
	C93.453522,144.446335 96.401947,140.339722 99.642784,136.069443 
z"/>
<path fill="#B82E46" opacity="1.000000" stroke="none" 
	d="
M93.304550,491.285645 
	C96.367126,494.842926 99.523895,498.722504 102.703064,502.968109 
	C99.616554,499.425385 96.507652,495.516663 93.304550,491.285645 
z"/>
<path fill="#B82E46" opacity="1.000000" stroke="none" 
	d="
M72.742645,458.568054 
	C75.412659,462.639526 78.137390,467.069794 80.798615,471.874695 
	C78.089195,467.808472 75.443275,463.367645 72.742645,458.568054 
z"/>
<path fill="#B82E46" opacity="1.000000" stroke="none" 
	d="
M159.743607,557.745117 
	C163.926590,560.216248 168.277267,562.967773 172.623230,566.073730 
	C168.382797,563.627197 164.147049,560.826416 159.743607,557.745117 
z"/>
<path fill="#B82E46" opacity="1.000000" stroke="none" 
	d="
M127.728142,530.739624 
	C131.387451,533.738342 135.156021,537.047058 138.946503,540.704041 
	C135.258087,537.718018 131.547729,534.383850 127.728142,530.739624 
z"/>
<path fill="#B82E46" opacity="1.000000" stroke="none" 
	d="
M148.405853,549.176270 
	C152.034119,551.512268 155.822632,554.128662 159.576630,557.101624 
	C155.883438,554.791016 152.224762,552.123901 148.405853,549.176270 
z"/>
<path fill="#B82E46" opacity="1.000000" stroke="none" 
	d="
M80.771645,472.550537 
	C83.382652,476.067932 86.067101,479.931000 88.773285,484.182617 
	C86.145035,480.679504 83.495064,476.787842 80.771645,472.550537 
z"/>
<path fill="#B52640" opacity="1.000000" stroke="none" 
	d="
M64.511627,193.671234 
	C62.956619,198.162369 61.111950,202.881790 58.906548,207.651276 
	C60.437862,203.100723 62.329910,198.500122 64.511627,193.671234 
z"/>
<path fill="#B82E46" opacity="1.000000" stroke="none" 
	d="
M109.649193,511.784424 
	C112.289444,514.193298 115.035103,516.917297 117.685638,520.001709 
	C114.978546,517.607849 112.366570,514.853760 109.649193,511.784424 
z"/>
<path fill="#B82E46" opacity="1.000000" stroke="none" 
	d="
M204.930328,584.776978 
	C208.664734,586.192200 212.649078,587.825195 216.810928,589.751953 
	C213.052383,588.362122 209.116333,586.678406 204.930328,584.776978 
z"/>
<path fill="#B82E46" opacity="1.000000" stroke="none" 
	d="
M41.197319,366.362762 
	C42.066471,369.115692 42.851151,372.276489 43.371254,375.700134 
	C42.442066,372.898865 41.777454,369.834717 41.197319,366.362762 
z"/>
<path fill="#B52640" opacity="1.000000" stroke="none" 
	d="
M42.832497,260.306030 
	C42.715012,262.946228 42.368473,265.884857 41.686188,268.927979 
	C41.768108,266.223145 42.185772,263.413818 42.832497,260.306030 
z"/>
<path fill="#B82E46" opacity="1.000000" stroke="none" 
	d="
M187.808197,575.772095 
	C190.621643,576.917053 193.628189,578.327759 196.608582,580.105713 
	C193.722046,578.994629 190.861664,577.516235 187.808197,575.772095 
z"/>
<path fill="#B52640" opacity="1.000000" stroke="none" 
	d="
M192.227768,57.591827 
	C189.837296,59.267498 187.106995,61.026520 184.004364,62.676258 
	C186.383987,60.936378 189.135956,59.305782 192.227768,57.591827 
z"/>
<path fill="#B52640" opacity="1.000000" stroke="none" 
	d="
M177.599487,66.005585 
	C175.770538,67.583801 173.602676,69.209435 171.061874,70.761642 
	C172.879486,69.143143 175.070023,67.598068 177.599487,66.005585 
z"/>
<path fill="#B82E46" opacity="1.000000" stroke="none" 
	d="
M141.758179,543.623047 
	C143.770233,544.909607 145.909348,546.498901 148.070251,548.436035 
	C146.023102,547.164490 143.954163,545.545105 141.758179,543.623047 
z"/>
<path fill="#B82E46" opacity="1.000000" stroke="none" 
	d="
M121.725647,524.806152 
	C123.317474,525.889404 125.041748,527.257019 126.628067,529.000732 
	C124.946114,527.947998 123.402100,526.519287 121.725647,524.806152 
z"/>
<path fill="#B52640" opacity="1.000000" stroke="none" 
	d="
M44.773247,251.256622 
	C44.698158,252.958145 44.376602,254.910263 43.736061,256.950592 
	C43.786976,255.194931 44.156879,253.351089 44.773247,251.256622 
z"/>
<path fill="#B52640" opacity="1.000000" stroke="none" 
	d="
M40.951694,272.285095 
	C42.063583,272.964264 42.993870,273.898071 43.991684,275.106934 
	C41.766052,275.819550 39.972301,275.679230 40.951694,272.285095 
z"/>
<path fill="#B82E46" opacity="1.000000" stroke="none" 
	d="
M180.836761,571.720337 
	C182.949951,572.562744 185.260681,573.666931 187.580673,575.125854 
	C185.404739,574.314392 183.219528,573.148254 180.836761,571.720337 
z"/>
<path fill="#B52640" opacity="1.000000" stroke="none" 
	d="
M56.510574,212.633209 
	C56.076168,214.815109 55.352520,217.244156 54.295189,219.830170 
	C54.714779,217.618210 55.468052,215.249283 56.510574,212.633209 
z"/>
<path fill="#B52640" opacity="1.000000" stroke="none" 
	d="
M103.079407,131.751984 
	C102.429764,133.022736 101.535576,134.474670 100.273178,135.934875 
	C100.881599,134.606476 101.858231,133.269821 103.079407,131.751984 
z"/>
<path fill="#B52640" opacity="1.000000" stroke="none" 
	d="
M183.299667,62.633873 
	C181.989609,63.705376 180.350235,64.846130 178.340668,65.962967 
	C179.637100,64.860413 181.303726,63.781769 183.299667,62.633873 
z"/>
<path fill="#B82E46" opacity="1.000000" stroke="none" 
	d="
M89.090187,485.321350 
	C90.285477,486.559052 91.529762,488.133148 92.813065,490.082092 
	C91.614449,488.857208 90.376816,487.257446 89.090187,485.321350 
z"/>
<path fill="#B52640" opacity="1.000000" stroke="none" 
	d="
M112.447678,120.787010 
	C111.706703,122.088631 110.660141,123.508430 109.262100,124.937912 
	C109.987778,123.600128 111.064934,122.252655 112.447678,120.787010 
z"/>
<path fill="#B52640" opacity="1.000000" stroke="none" 
	d="
M87.433548,152.885864 
	C87.031387,154.119324 86.347305,155.512054 85.288368,156.923492 
	C85.659554,155.643173 86.405594,154.344162 87.433548,152.885864 
z"/>
<path fill="#B82E46" opacity="1.000000" stroke="none" 
	d="
M172.810226,566.726013 
	C174.280045,567.234436 175.915665,568.020081 177.529510,569.163330 
	C175.997177,568.681641 174.486603,567.842468 172.810226,566.726013 
z"/>
<path fill="#B52640" opacity="1.000000" stroke="none" 
	d="
M90.265884,148.736237 
	C89.815063,149.942795 89.092865,151.320953 88.019623,152.740967 
	C88.443878,151.491150 89.219185,150.199509 90.265884,148.736237 
z"/>
<path fill="#B82E46" opacity="1.000000" stroke="none" 
	d="
M68.640442,450.628265 
	C69.358139,451.385223 70.108635,452.475037 70.749252,453.939575 
	C69.983994,453.196564 69.328621,452.078857 68.640442,450.628265 
z"/>
<path fill="#B52640" opacity="1.000000" stroke="none" 
	d="
M84.647232,157.093231 
	C84.339775,158.189148 83.746307,159.464005 82.769058,160.778687 
	C83.043922,159.636398 83.702568,158.454285 84.647232,157.093231 
z"/>
<path fill="#B52640" opacity="1.000000" stroke="none" 
	d="
M135.381439,97.778702 
	C134.888062,98.666908 134.100693,99.663811 132.941742,100.645569 
	C133.409256,99.716087 134.248352,98.801743 135.381439,97.778702 
z"/>
<path fill="#B52640" opacity="1.000000" stroke="none" 
	d="
M58.326195,207.910965 
	C58.244637,209.029861 57.907528,210.372269 57.235836,211.880737 
	C57.291054,210.742691 57.680851,209.438583 58.326195,207.910965 
z"/>
<path fill="#B52640" opacity="1.000000" stroke="none" 
	d="
M170.429947,70.687012 
	C169.959183,71.368240 169.172440,72.096230 168.029465,72.738838 
	C168.486801,72.013565 169.300400,71.373672 170.429947,70.687012 
z"/>
<path fill="#B82E46" opacity="1.000000" stroke="none" 
	d="
M177.766418,569.835571 
	C178.603714,569.955994 179.611130,570.327515 180.620117,571.074707 
	C179.726639,570.995789 178.831604,570.541260 177.766418,569.835571 
z"/>
<path fill="#B82E46" opacity="1.000000" stroke="none" 
	d="
M102.745575,503.569519 
	C103.473618,504.149963 104.282921,505.024384 105.117355,506.227875 
	C104.370605,505.659119 103.598724,504.761322 102.745575,503.569519 
z"/>
<path fill="#B52640" opacity="1.000000" stroke="none" 
	d="
M167.403351,72.681755 
	C166.945389,73.360535 166.175369,74.100052 165.047607,74.763794 
	C165.490356,74.039513 166.290817,73.391006 167.403351,72.681755 
z"/>
<path fill="#B52640" opacity="1.000000" stroke="none" 
	d="
M141.262085,92.619537 
	C140.882401,93.324089 140.205139,94.115929 139.168823,94.879066 
	C139.528000,94.135857 140.246262,93.421341 141.262085,92.619537 
z"/>
<path fill="#B52640" opacity="1.000000" stroke="none" 
	d="
M162.679077,75.917313 
	C162.436340,76.517220 161.885925,77.146034 160.982452,77.688560 
	C161.210068,77.050255 161.790741,76.498238 162.679077,75.917313 
z"/>
<path fill="#B52640" opacity="1.000000" stroke="none" 
	d="
M147.282257,87.609795 
	C146.858109,88.266296 146.125885,88.999489 145.045502,89.764084 
	C145.456284,89.092491 146.215225,88.389488 147.282257,87.609795 
z"/>
<path fill="#B52640" opacity="1.000000" stroke="none" 
	d="
M108.658775,125.047241 
	C108.410591,125.835915 107.880600,126.761574 107.005005,127.722168 
	C107.231918,126.899467 107.804443,126.041847 108.658775,125.047241 
z"/>
<path fill="#B82E46" opacity="1.000000" stroke="none" 
	d="
M107.733887,509.649384 
	C108.331497,509.817627 109.021202,510.254395 109.598770,511.054352 
	C108.933075,510.917664 108.379524,510.417816 107.733887,509.649384 
z"/>
<path fill="#B52640" opacity="1.000000" stroke="none" 
	d="
M66.437286,189.557800 
	C66.354813,190.458130 65.991119,191.573547 65.293701,192.861023 
	C65.358673,191.946350 65.757370,190.859619 66.437286,189.557800 
z"/>
<path fill="#B82E46" opacity="1.000000" stroke="none" 
	d="
M202.114883,583.297852 
	C202.815002,583.292175 203.683258,583.549255 204.554108,584.167480 
	C203.798813,584.205933 203.040909,583.883240 202.114883,583.297852 
z"/>
<path fill="#B52640" opacity="1.000000" stroke="none" 
	d="
M143.459869,90.748405 
	C143.245682,91.327507 142.744095,91.987366 141.903229,92.596451 
	C142.100128,91.973511 142.636292,91.401337 143.459869,90.748405 
z"/>
<path fill="#B52640" opacity="1.000000" stroke="none" 
	d="
M138.581573,94.859039 
	C138.370728,95.439613 137.853561,96.082230 137.008240,96.742050 
	C137.211807,96.146523 137.743530,95.533798 138.581573,94.859039 
z"/>
<path fill="#B52640" opacity="1.000000" stroke="none" 
	d="
M116.207428,116.666122 
	C116.079094,117.245392 115.693504,117.959946 114.959152,118.674019 
	C115.056984,118.049500 115.503578,117.425453 116.207428,116.666122 
z"/>
<path fill="#B52640" opacity="1.000000" stroke="none" 
	d="
M114.378807,118.729782 
	C114.222710,119.315086 113.782974,120.009972 113.005112,120.727600 
	C113.143044,120.113350 113.619110,119.476364 114.378807,118.729782 
z"/>
<path fill="#B82E46" opacity="1.000000" stroke="none" 
	d="
M118.696869,521.667236 
	C119.280876,521.842773 119.953362,522.298279 120.585693,523.092285 
	C119.958809,522.936279 119.372078,522.441711 118.696869,521.667236 
z"/>
<path fill="#B52640" opacity="1.000000" stroke="none" 
	d="
M68.328415,185.832047 
	C68.446617,186.299911 68.323479,186.926117 67.847305,187.573547 
	C67.691872,187.059982 67.889473,186.525177 68.328415,185.832047 
z"/>
<path fill="#B82E46" opacity="1.000000" stroke="none" 
	d="
M200.104004,582.295471 
	C200.524948,582.192322 201.101379,582.353149 201.830597,582.784302 
	C201.408737,582.889526 200.834122,582.724487 200.104004,582.295471 
z"/>
<path fill="#B82E46" opacity="1.000000" stroke="none" 
	d="
M198.122742,581.278442 
	C198.536011,581.183777 199.110870,581.347107 199.836334,581.781494 
	C199.419388,581.880493 198.851868,581.708557 198.122742,581.278442 
z"/>
<path fill="#B52640" opacity="1.000000" stroke="none" 
	d="
M131.216736,101.548126 
	C131.185806,101.951454 130.879318,102.437675 130.231964,102.925186 
	C130.241119,102.494652 130.591141,102.062836 131.216736,101.548126 
z"/>
<path fill="#B82E46" opacity="1.000000" stroke="none" 
	d="
M139.061005,541.298096 
	C139.505203,541.284729 140.062805,541.533936 140.618576,542.111450 
	C140.135971,542.146729 139.655197,541.853699 139.061005,541.298096 
z"/>
<path fill="#B82E46" opacity="1.000000" stroke="none" 
	d="
M71.636864,456.585449 
	C72.023735,456.718262 72.440086,457.148132 72.789307,457.914490 
	C72.370232,457.794830 72.018288,457.338684 71.636864,456.585449 
z"/>
<path fill="#B52640" opacity="1.000000" stroke="none" 
	d="
M69.284210,183.852570 
	C69.423592,184.307434 69.330208,184.940506 68.888794,185.634308 
	C68.710999,185.140305 68.881226,184.585526 69.284210,183.852570 
z"/>
<path fill="#B52640" opacity="1.000000" stroke="none" 
	d="
M70.274178,181.837219 
	C70.411545,182.293488 70.319405,182.923950 69.876724,183.596634 
	C69.699005,183.096390 69.871834,182.553894 70.274178,181.837219 
z"/>
<path fill="#B82E46" opacity="1.000000" stroke="none" 
	d="
M70.625710,454.568726 
	C71.008537,454.721191 71.408310,455.171509 71.714188,455.955688 
	C71.294403,455.815216 70.968529,455.340912 70.625710,454.568726 
z"/>
<path fill="#B52640" opacity="1.000000" stroke="none" 
	d="
M71.311920,179.841827 
	C71.435127,180.302933 71.323868,180.934937 70.857651,181.601288 
	C70.694283,181.094681 70.885872,180.553696 71.311920,179.841827 
z"/>
<path fill="#B82E46" opacity="1.000000" stroke="none" 
	d="
M105.513023,507.121582 
	C105.867569,507.170715 106.300781,507.464813 106.736237,508.035278 
	C106.356209,507.996613 105.973946,507.681549 105.513023,507.121582 
z"/>
<path fill="#B52640" opacity="1.000000" stroke="none" 
	d="
M72.372589,177.858582 
	C72.489304,178.324356 72.360237,178.955002 71.879868,179.627487 
	C71.727989,179.120712 71.927399,178.572067 72.372589,177.858582 
z"/>
<path fill="#B52640" opacity="1.000000" stroke="none" 
	d="
M104.539505,129.883575 
	C104.569511,130.360825 104.341759,130.943481 103.774017,131.459732 
	C103.716614,130.925217 103.999184,130.457092 104.539505,129.883575 
z"/>
<path fill="#B52640" opacity="1.000000" stroke="none" 
	d="
M132.363129,100.664124 
	C132.445145,100.930313 132.297638,101.263351 131.851929,101.529930 
	C131.644073,101.137833 131.837387,100.893669 132.363129,100.664124 
z"/>
<path fill="#B52640" opacity="1.000000" stroke="none" 
	d="
M164.464020,74.726601 
	C164.518173,75.001282 164.264191,75.352844 163.664459,75.714546 
	C163.597763,75.417625 163.876816,75.110550 164.464020,74.726601 
z"/>
<path fill="#B82E46" opacity="1.000000" stroke="none" 
	d="
M196.818146,580.686890 
	C197.000183,580.513855 197.349091,580.536987 197.844940,580.798340 
	C197.656265,580.985413 197.320648,580.934265 196.818146,580.686890 
z"/>
<path fill="#B52640" opacity="1.000000" stroke="none" 
	d="
M144.519928,89.777641 
	C144.609558,90.031036 144.437286,90.359482 143.970917,90.713982 
	C143.870544,90.444252 144.064285,90.148468 144.519928,89.777641 
z"/>
<path fill="#B82E46" opacity="1.000000" stroke="none" 
	d="
M67.931190,449.302094 
	C68.195602,449.275696 68.455902,449.521851 68.682083,450.047180 
	C68.407677,450.075775 68.167374,449.825195 67.931190,449.302094 
z"/>
<path fill="#B52640" opacity="1.000000" stroke="none" 
	d="
M136.493408,96.760483 
	C136.584457,97.016762 136.414520,97.344345 135.950241,97.690460 
	C135.848068,97.416595 136.040237,97.124191 136.493408,96.760483 
z"/>
<path fill="#B82E46" opacity="1.000000" stroke="none" 
	d="
M117.703659,520.630249 
	C117.959694,520.525269 118.287979,520.659302 118.610466,521.083374 
	C118.245796,521.341248 117.969543,521.173157 117.703659,520.630249 
z"/>
<path fill="#B52640" opacity="1.000000" stroke="none" 
	d="
M105.487274,128.786743 
	C105.603752,129.030380 105.458298,129.368515 105.030670,129.777618 
	C104.907455,129.526138 105.066399,129.203690 105.487274,128.786743 
z"/>
<path fill="#B52640" opacity="1.000000" stroke="none" 
	d="
M117.152176,115.649414 
	C117.281975,115.905327 117.211174,116.241997 116.842857,116.523956 
	C116.566444,116.160065 116.701859,115.913704 117.152176,115.649414 
z"/>
<path fill="#B82E46" opacity="1.000000" stroke="none" 
	d="
M140.709747,542.664062 
	C140.955048,542.544983 141.296082,542.658020 141.653137,543.064941 
	C141.381271,543.204590 141.093384,543.050354 140.709747,542.664062 
z"/>
<path fill="#B82E46" opacity="1.000000" stroke="none" 
	d="
M106.759644,508.515503 
	C107.013779,508.434967 107.331482,508.607635 107.646446,509.070923 
	C107.370216,509.163971 107.096718,508.966339 106.759644,508.515503 
z"/>
<path fill="#B82E46" opacity="1.000000" stroke="none" 
	d="
M126.684090,529.706055 
	C126.939018,529.584717 127.274124,529.692322 127.601212,530.091797 
	C127.243111,530.370422 126.966797,530.220886 126.684090,529.706055 
z"/>
<path fill="#B52640" opacity="1.000000" stroke="none" 
	d="
M67.289642,187.800201 
	C67.458778,187.993912 67.416557,188.356079 67.122650,188.864349 
	C66.940079,188.663177 67.009186,188.315903 67.289642,187.800201 
z"/>
<path fill="#B82E46" opacity="1.000000" stroke="none" 
	d="
M120.678642,523.707031 
	C120.931305,523.605835 121.255356,523.722473 121.539185,524.125122 
	C121.174561,524.364197 120.924911,524.202148 120.678642,523.707031 
z"/>
<path fill="#B52640" opacity="1.000000" stroke="none" 
	d="
M106.476448,127.771042 
	C106.575897,128.015778 106.420853,128.349838 105.974464,128.722092 
	C105.862740,128.460312 106.042343,128.160355 106.476448,127.771042 
z"/>
</svg>